<?xml version="1.0" standalone="no"?>
<!DOCTYPE svg PUBLIC "-//W3C//DTD SVG 20010904//EN"
 "http://www.w3.org/TR/2001/REC-SVG-20010904/DTD/svg10.dtd">
<svg version="1.0" xmlns="http://www.w3.org/2000/svg"
 width="500.000000pt" height="500.000000pt" viewBox="0 0 500.000000 500.000000"
 preserveAspectRatio="xMidYMid meet">

<g transform="translate(0.000000,500.000000) scale(0.100000,-0.100000)"
fill="#000000" stroke="none">
<path d="M2197 3183 c-14 -23 -218 -816 -213 -828 4 -12 25 -15 96 -15 49 0
90 -3 90 -6 0 -3 -7 -33 -16 -66 -8 -33 -13 -67 -10 -74 4 -11 28 -14 96 -14
59 0 90 -4 90 -11 0 -6 -7 -38 -15 -70 -9 -33 -13 -64 -10 -69 3 -6 58 -10
120 -10 127 0 126 0 139 73 l7 37 89 0 c79 0 90 -2 90 -17 0 -10 5 -35 11 -55
l10 -38 119 0 c65 0 121 4 125 9 4 8 -135 555 -201 789 l-15 52 -59 0 c-45 0
-60 4 -60 14 0 8 -9 43 -20 79 l-20 66 -58 3 -57 3 -20 75 -20 75 -142 3 c-78
1 -144 -1 -146 -5z m278 -65 c25 -87 25 -88 -50 -88 l-64 0 -25 -82 c-14 -46
-53 -191 -87 -323 -34 -132 -66 -246 -72 -252 -12 -17 -167 -18 -167 -2 0 12
183 709 201 767 l11 32 118 0 119 0 16 -52z m47 -178 c10 -38 14 -66 8 -68
-10 -4 -44 -113 -86 -279 l-28 -113 -88 0 c-48 0 -88 3 -88 6 0 3 8 35 17 70
l17 64 63 0 c34 0 64 4 67 9 3 5 -8 69 -24 143 -29 135 -29 151 -5 226 3 9 23
12 66 10 l62 -3 19 -65z m119 0 c10 -36 18 -66 19 -68 0 -2 -21 -2 -47 0 l-47
3 -13 50 c-21 82 -19 87 29 83 l41 -3 18 -65z m-51 -257 l42 -162 -18 -78 -19
-78 -62 -3 -62 -3 -10 38 c-17 61 -16 63 43 63 30 0 57 4 60 8 3 5 -8 69 -25
143 -18 83 -27 145 -23 164 8 38 24 79 28 74 2 -2 22 -77 46 -166z m74 159 c6
-10 166 -617 166 -631 0 -13 -196 -16 -203 -3 -3 4 -8 26 -12 50 l-7 42 58 0
57 0 -6 48 c-11 87 -49 232 -61 232 -10 0 -76 225 -76 259 0 12 76 16 84 3z
m223 -382 c56 -212 103 -393 103 -402 0 -16 -11 -18 -100 -18 -72 0 -102 4
-105 13 -2 6 -9 31 -15 55 l-11 42 -103 0 -104 0 -6 -37 c-14 -77 -7 -73 -123
-73 -96 0 -105 2 -98 18 3 9 11 38 17 64 7 30 20 53 33 62 16 10 25 29 29 61
l7 46 87 -3 86 -3 11 -50 10 -50 123 -3 c94 -2 124 0 127 11 4 10 -126 528
-161 640 -5 16 0 18 43 15 l48 -3 102 -385z m-531 293 c8 -37 17 -76 20 -85 4
-15 -1 -18 -35 -18 -26 0 -41 5 -41 12 0 24 33 168 38 164 2 -3 11 -36 18 -73z
m160 -154 c8 -35 16 -74 19 -86 5 -21 2 -23 -35 -23 -29 0 -40 4 -40 15 0 24
33 166 37 161 2 -2 11 -33 19 -67z m154 -226 c0 -14 -36 -18 -44 -5 -2 4 0 30
6 57 l11 50 13 -45 c8 -25 14 -51 14 -57z m-295 -45 l-32 -123 -86 -3 c-78 -2
-87 -1 -87 15 0 36 31 116 49 129 11 8 21 32 25 59 l7 45 78 0 78 0 -32 -122z
m131 14 c100 -4 94 -16 -11 -22 -55 -3 -101 -5 -101 -5 -1 0 6 25 14 55 l16
55 11 -40 12 -40 59 -3z m194 -12 c0 -5 -18 -10 -40 -10 -22 0 -40 5 -40 10 0
6 18 10 40 10 22 0 40 -4 40 -10z"/>
</g>
</svg>
